<svg xmlns="http://www.w3.org/2000/svg" width="35.846" height="72.171" viewBox="0 0 35.846 72.171">
    <g id="Group_4280" data-name="Group 4280" transform="translate(-6.104)">
        <path id="Path_2949" data-name="Path 2949" d="M202.644,294.253s4.547-9.086-2.023-14.8-15.86-7.2-15.86-7.2,2.6,8.312,5.477,11.826A45.309,45.309,0,0,0,202.644,294.253Z" transform="translate(-169.421 -272.253)" fill="#2fc75c"/>
        <path id="Path_2950" data-name="Path 2950" d="M187.653,332.257s9.465-31.827-2.638-51.119" transform="translate(-156.703 -271.278)" fill="none" stroke="#fff" stroke-linecap="round" stroke-miterlimit="10" stroke-width="0.5"/>
        <path id="Path_2953" data-name="Path 2953" d="M211.662,306.739s3.824-11.229-3.383-16.316-16.811-4.833-16.811-4.833,3.394,8.858,6.639,12.233A39.908,39.908,0,0,0,211.662,306.739Z" transform="translate(-185.364 -270.789)" fill="#2fc75c"/>
        <path id="Path_2954" data-name="Path 2954" d="M189.5,293.282s-7.21-1.079-9.632,3.537-1.358,10.073-1.358,10.073,5.083-2.809,6.834-4.993A22.791,22.791,0,0,0,189.5,293.282Z" transform="translate(-147.549 -269.957)" fill="#2fc75c"/>
        <path id="Path_2955" data-name="Path 2955" d="M196.36,341.818s8.109-29.326-5.951-48.621" transform="translate(-170.2 -269.954)" fill="none" stroke="#fff" stroke-linecap="round" stroke-miterlimit="10" stroke-width="0.5"/>
        <path id="Path_2956" data-name="Path 2956" d="M191.457,298.847a36.082,36.082,0,0,0-7.485,16.453" transform="translate(-155.827 -269.334)" fill="none" stroke="#fff" stroke-linecap="round" stroke-miterlimit="10" stroke-width="0.5"/>
    </g>
</svg>
