<svg xmlns="http://www.w3.org/2000/svg" width="21.232" height="34.107" viewBox="0 0 21.232 34.107">
  <g id="Group_4281" data-name="Group 4281" transform="translate(-6.104 -8.765)">
    <path id="Path_2953" data-name="Path 2953" d="M203.429,298.116s2.265-6.651-2-9.664-9.957-2.863-9.957-2.863,2.01,5.247,3.932,7.245A23.637,23.637,0,0,0,203.429,298.116Z" transform="translate(-185.364 -276.823)" fill="#2fc75c"/>
    <path id="Path_2954" data-name="Path 2954" d="M184.924,293.237s-4.271-.639-5.7,2.095a10.2,10.2,0,0,0-.8,5.966,18.342,18.342,0,0,0,4.048-2.957A13.5,13.5,0,0,0,184.924,293.237Z" transform="translate(-157.588 -279.422)" fill="#2fc75c"/>
    <path id="Path_2955" data-name="Path 2955" d="M193.934,321.995s4.8-17.37-3.525-28.8" transform="translate(-175.951 -279.43)" fill="none" stroke="#383838" stroke-linecap="round" stroke-miterlimit="10" stroke-width="0.5"/>
    <path id="Path_2956" data-name="Path 2956" d="M188.406,298.847a21.371,21.371,0,0,0-4.434,9.745" transform="translate(-164.813 -281.367)" fill="none" stroke="#383838" stroke-linecap="round" stroke-miterlimit="10" stroke-width="0.5"/>
  </g>
</svg>
