<svg id="Group_126" data-name="Group 126" xmlns="http://www.w3.org/2000/svg" width="35" height="35" viewBox="0 0 35 35">
  <g id="Path_2889" data-name="Path 2889" fill="none">
    <path d="M17.5,0A17.5,17.5,0,1,1,0,17.5,17.5,17.5,0,0,1,17.5,0Z" stroke="none"/>
    <path d="M 17.5 1 C 13.09268951416016 1 8.949180603027344 2.716300964355469 5.832740783691406 5.832740783691406 C 2.716300964355469 8.949180603027344 1 13.09268951416016 1 17.5 C 1 21.90731048583984 2.716300964355469 26.05081939697266 5.832740783691406 29.16725921630859 C 8.949180603027344 32.28369903564453 13.09268951416016 34 17.5 34 C 21.90731048583984 34 26.05081939697266 32.28369903564453 29.16725921630859 29.16725921630859 C 32.28369903564453 26.05081939697266 34 21.90731048583984 34 17.5 C 34 13.09268951416016 32.28369903564453 8.949180603027344 29.16725921630859 5.832740783691406 C 26.05081939697266 2.716300964355469 21.90731048583984 1 17.5 1 M 17.5 0 C 27.16497993469238 0 35 7.835020065307617 35 17.5 C 35 27.16497993469238 27.16497993469238 35 17.5 35 C 7.835020065307617 35 0 27.16497993469238 0 17.5 C 0 7.835020065307617 7.835020065307617 0 17.5 0 Z" stroke="none" fill="#ffbe0b"/>
  </g>
  <g id="facebook" transform="translate(14.262 11.031)">
    <path id="XMLID_835_" d="M76.905,6.675h1.374v5.656a.2.2,0,0,0,.2.2h2.329a.2.2,0,0,0,.2-.2V6.7h1.579a.2.2,0,0,0,.2-.179l.24-2.082a.2.2,0,0,0-.2-.225H81.013V2.91c0-.393.212-.593.63-.593h1.189a.2.2,0,0,0,.2-.2V.2a.2.2,0,0,0-.2-.2H81.118a3.141,3.141,0,0,0-2.054.774,2.154,2.154,0,0,0-.716,1.915V4.215H76.905a.2.2,0,0,0-.2.2V6.473A.2.2,0,0,0,76.905,6.675Z" transform="translate(-76.703)" fill="#ffbe0b"/>
  </g>
</svg>
