<svg xmlns="http://www.w3.org/2000/svg" width="35.648" height="28.163" viewBox="0 0 35.648 28.163">
    <g id="Group_4286" data-name="Group 4286" transform="translate(-65.397 -67.355)">
        <g id="Group_4177" data-name="Group 4177" transform="translate(-100.155 -283.738)">
            <path id="Path_4238" data-name="Path 4238" d="M200.6,353.326l-1.357-1.287.049,1.828c-2.94-2.159-9.587-5.489-16.881,1.142a1,1,0,0,0-.037,1.448l0,0a.993.993,0,0,0,1.368.036c5.775-5.266,10.874-3.5,13.991-1.3l-1.525.04,1.357,1.287,3.115-.083Z" transform="translate(-8.113 0)" fill="#97bfe2"/>
            <path id="Path_4239" data-name="Path 4239" d="M200.391,403.841l0,0a.992.992,0,0,0-1.367-.036c-5.775,5.266-10.874,3.5-13.991,1.3l1.525-.04-1.357-1.287-3.115.083.083,3.115,1.357,1.287-.049-1.828c2.94,2.159,9.587,5.49,16.881-1.142A1,1,0,0,0,200.391,403.841Z" transform="translate(-8.113 -29.949)" fill="#97bfe2"/>
        </g>
        <g id="Group_2699" data-name="Group 2699" transform="translate(-161.972 -261.447)">
            <rect id="Rectangle_1436" data-name="Rectangle 1436" width="12.135" height="6.764" transform="translate(250.881 339.502)" fill="#e6e6e6"/>
            <rect id="Rectangle_1437" data-name="Rectangle 1437" width="12.135" height="0.507" transform="translate(250.881 339.502)" fill="#ff2b55"/>
            <rect id="Rectangle_1438" data-name="Rectangle 1438" width="12.135" height="0.507" transform="translate(250.881 340.545)" fill="#ff2b55"/>
            <rect id="Rectangle_1439" data-name="Rectangle 1439" width="12.135" height="0.507" transform="translate(250.881 341.588)" fill="#ff2b55"/>
            <rect id="Rectangle_1440" data-name="Rectangle 1440" width="12.135" height="0.507" transform="translate(250.881 342.631)" fill="#ff2b55"/>
            <rect id="Rectangle_1441" data-name="Rectangle 1441" width="12.135" height="0.507" transform="translate(250.881 343.673)" fill="#ff2b55"/>
            <rect id="Rectangle_1442" data-name="Rectangle 1442" width="12.135" height="0.507" transform="translate(250.881 344.716)" fill="#ff2b55"/>
            <rect id="Rectangle_1443" data-name="Rectangle 1443" width="12.135" height="0.507" transform="translate(250.881 345.759)" fill="#ff2b55"/>
            <rect id="Rectangle_1444" data-name="Rectangle 1444" width="4.905" height="3.635" transform="translate(250.881 339.502)" fill="#0096ea"/>
            <g id="Group_2698" data-name="Group 2698" transform="translate(250.983 339.617)">
                <path id="Path_2456" data-name="Path 2456" d="M251.448,339.918l.046.152h.15l-.122.094.046.152-.122-.094-.122.094.046-.152-.122-.094h.15Z" transform="translate(-251.251 -339.918)" fill="#fff"/>
                <path id="Path_2457" data-name="Path 2457" d="M253.4,339.918l.046.152h.15l-.122.094.046.152-.122-.094-.122.094.046-.152-.122-.094h.15Z" transform="translate(-252.667 -339.918)" fill="#fff"/>
                <path id="Path_2458" data-name="Path 2458" d="M255.357,339.918l.046.152h.15l-.122.094.046.152-.122-.094-.122.094.046-.152-.122-.094h.15Z" transform="translate(-254.084 -339.918)" fill="#fff"/>
                <path id="Path_2459" data-name="Path 2459" d="M257.312,339.918l.046.152h.15l-.122.094.046.152-.122-.094-.122.094.046-.152-.122-.094h.15Z" transform="translate(-255.5 -339.918)" fill="#fff"/>
                <path id="Path_2460" data-name="Path 2460" d="M259.267,339.918l.046.152h.15l-.122.094.046.152-.122-.094-.122.094.046-.152-.122-.094h.15Z" transform="translate(-256.916 -339.918)" fill="#fff"/>
                <path id="Path_2461" data-name="Path 2461" d="M261.222,339.918l.046.152h.15l-.122.094.046.152-.122-.094-.122.094.046-.152-.122-.094h.15Z" transform="translate(-258.333 -339.918)" fill="#fff"/>
                <path id="Path_2462" data-name="Path 2462" d="M263.176,339.918l.046.152h.15l-.122.094.047.152-.122-.094-.122.094.046-.152-.122-.094h.15Z" transform="translate(-259.749 -339.918)" fill="#fff"/>
                <path id="Path_2463" data-name="Path 2463" d="M265.131,339.918l.046.152h.15l-.122.094.046.152-.122-.094-.122.094.047-.152-.122-.094h.15Z" transform="translate(-261.166 -339.918)" fill="#fff"/>
                <path id="Path_2464" data-name="Path 2464" d="M267.086,339.918l.046.152h.15l-.122.094.046.152-.122-.094-.122.094.046-.152-.122-.094h.15Z" transform="translate(-262.582 -339.918)" fill="#fff"/>
                <path id="Path_2465" data-name="Path 2465" d="M251.448,344.288l.046.152h.15l-.122.094.046.152-.122-.094-.122.094.046-.152-.122-.094h.15Z" transform="translate(-251.251 -343.084)" fill="#fff"/>
                <path id="Path_2466" data-name="Path 2466" d="M253.4,344.288l.046.152h.15l-.122.094.046.152-.122-.094-.122.094.046-.152-.122-.094h.15Z" transform="translate(-252.667 -343.084)" fill="#fff"/>
                <path id="Path_2467" data-name="Path 2467" d="M255.357,344.288l.046.152h.15l-.122.094.046.152-.122-.094-.122.094.046-.152-.122-.094h.15Z" transform="translate(-254.084 -343.084)" fill="#fff"/>
                <path id="Path_2468" data-name="Path 2468" d="M257.312,344.288l.046.152h.15l-.122.094.046.152-.122-.094-.122.094.046-.152-.122-.094h.15Z" transform="translate(-255.5 -343.084)" fill="#fff"/>
                <path id="Path_2469" data-name="Path 2469" d="M259.267,344.288l.046.152h.15l-.122.094.046.152-.122-.094-.122.094.046-.152-.122-.094h.15Z" transform="translate(-256.916 -343.084)" fill="#fff"/>
                <path id="Path_2470" data-name="Path 2470" d="M261.222,344.288l.046.152h.15l-.122.094.046.152-.122-.094-.122.094.046-.152-.122-.094h.15Z" transform="translate(-258.333 -343.084)" fill="#fff"/>
                <path id="Path_2471" data-name="Path 2471" d="M263.176,344.288l.046.152h.15l-.122.094.047.152-.122-.094-.122.094.046-.152-.122-.094h.15Z" transform="translate(-259.749 -343.084)" fill="#fff"/>
                <path id="Path_2472" data-name="Path 2472" d="M265.131,344.288l.046.152h.15l-.122.094.046.152-.122-.094-.122.094.047-.152-.122-.094h.15Z" transform="translate(-261.166 -343.084)" fill="#fff"/>
                <path id="Path_2473" data-name="Path 2473" d="M267.086,344.288l.046.152h.15l-.122.094.046.152-.122-.094-.122.094.046-.152-.122-.094h.15Z" transform="translate(-262.582 -343.084)" fill="#fff"/>
                <path id="Path_2474" data-name="Path 2474" d="M251.448,348.658l.046.152h.15l-.122.094.046.152-.122-.094-.122.094.046-.152-.122-.094h.15Z" transform="translate(-251.251 -346.251)" fill="#fff"/>
                <path id="Path_2475" data-name="Path 2475" d="M253.4,348.658l.046.152h.15l-.122.094.046.152-.122-.094-.122.094.046-.152-.122-.094h.15Z" transform="translate(-252.667 -346.251)" fill="#fff"/>
                <path id="Path_2476" data-name="Path 2476" d="M255.357,348.658l.046.152h.15l-.122.094.046.152-.122-.094-.122.094.046-.152-.122-.094h.15Z" transform="translate(-254.084 -346.251)" fill="#fff"/>
                <path id="Path_2477" data-name="Path 2477" d="M257.312,348.658l.046.152h.15l-.122.094.046.152-.122-.094-.122.094.046-.152-.122-.094h.15Z" transform="translate(-255.5 -346.251)" fill="#fff"/>
                <path id="Path_2478" data-name="Path 2478" d="M259.267,348.658l.046.152h.15l-.122.094.046.152-.122-.094-.122.094.046-.152-.122-.094h.15Z" transform="translate(-256.916 -346.251)" fill="#fff"/>
                <path id="Path_2479" data-name="Path 2479" d="M261.222,348.658l.046.152h.15l-.122.094.046.152-.122-.094-.122.094.046-.152-.122-.094h.15Z" transform="translate(-258.333 -346.251)" fill="#fff"/>
                <path id="Path_2480" data-name="Path 2480" d="M263.176,348.658l.046.152h.15l-.122.094.047.152-.122-.094-.122.094.046-.152-.122-.094h.15Z" transform="translate(-259.749 -346.251)" fill="#fff"/>
                <path id="Path_2481" data-name="Path 2481" d="M265.131,348.658l.046.152h.15l-.122.094.046.152-.122-.094-.122.094.047-.152-.122-.094h.15Z" transform="translate(-261.166 -346.251)" fill="#fff"/>
                <path id="Path_2482" data-name="Path 2482" d="M267.086,348.658l.046.152h.15l-.122.094.046.152-.122-.094-.122.094.046-.152-.122-.094h.15Z" transform="translate(-262.582 -346.251)" fill="#fff"/>
                <path id="Path_2483" data-name="Path 2483" d="M252.425,342.1l.046.152h.15l-.122.094.046.152-.122-.094-.122.094.046-.152-.122-.094h.15Z" transform="translate(-251.959 -341.501)" fill="#fff"/>
                <path id="Path_2484" data-name="Path 2484" d="M254.38,342.1l.046.152h.15l-.122.094.046.152-.122-.094-.122.094.046-.152-.122-.094h.15Z" transform="translate(-253.376 -341.501)" fill="#fff"/>
                <path id="Path_2485" data-name="Path 2485" d="M256.335,342.1l.046.152h.15l-.122.094.047.152-.122-.094-.122.094.046-.152-.122-.094h.15Z" transform="translate(-254.792 -341.501)" fill="#fff"/>
                <path id="Path_2486" data-name="Path 2486" d="M258.289,342.1l.046.152h.15l-.122.094.046.152-.122-.094-.122.094.046-.152-.122-.094h.15Z" transform="translate(-256.208 -341.501)" fill="#fff"/>
                <path id="Path_2487" data-name="Path 2487" d="M260.244,342.1l.046.152h.15l-.122.094.046.152-.122-.094-.122.094.046-.152-.122-.094h.15Z" transform="translate(-257.625 -341.501)" fill="#fff"/>
                <path id="Path_2488" data-name="Path 2488" d="M262.2,342.1l.046.152h.15l-.122.094.046.152-.122-.094-.122.094.046-.152-.122-.094h.15Z" transform="translate(-259.041 -341.501)" fill="#fff"/>
                <path id="Path_2489" data-name="Path 2489" d="M264.154,342.1l.046.152h.15l-.122.094.047.152-.122-.094-.122.094.046-.152-.122-.094h.15Z" transform="translate(-260.457 -341.501)" fill="#fff"/>
                <path id="Path_2490" data-name="Path 2490" d="M266.109,342.1l.046.152h.15l-.122.094.046.152-.122-.094-.122.094.047-.152-.122-.094h.15Z" transform="translate(-261.874 -341.501)" fill="#fff"/>
                <path id="Path_2491" data-name="Path 2491" d="M252.425,346.473l.046.152h.15l-.122.094.046.152-.122-.094-.122.094.046-.152-.122-.094h.15Z" transform="translate(-251.959 -344.668)" fill="#fff"/>
                <path id="Path_2492" data-name="Path 2492" d="M254.38,346.473l.046.152h.15l-.122.094.046.152-.122-.094-.122.094.046-.152-.122-.094h.15Z" transform="translate(-253.376 -344.668)" fill="#fff"/>
                <path id="Path_2493" data-name="Path 2493" d="M256.335,346.473l.046.152h.15l-.122.094.047.152-.122-.094-.122.094.046-.152-.122-.094h.15Z" transform="translate(-254.792 -344.668)" fill="#fff"/>
                <path id="Path_2494" data-name="Path 2494" d="M258.289,346.473l.046.152h.15l-.122.094.046.152-.122-.094-.122.094.046-.152-.122-.094h.15Z" transform="translate(-256.208 -344.668)" fill="#fff"/>
                <path id="Path_2495" data-name="Path 2495" d="M260.244,346.473l.046.152h.15l-.122.094.046.152-.122-.094-.122.094.046-.152-.122-.094h.15Z" transform="translate(-257.625 -344.668)" fill="#fff"/>
                <path id="Path_2496" data-name="Path 2496" d="M262.2,346.473l.046.152h.15l-.122.094.046.152-.122-.094-.122.094.046-.152-.122-.094h.15Z" transform="translate(-259.041 -344.668)" fill="#fff"/>
                <path id="Path_2497" data-name="Path 2497" d="M264.154,346.473l.046.152h.15l-.122.094.047.152-.122-.094-.122.094.046-.152-.122-.094h.15Z" transform="translate(-260.457 -344.668)" fill="#fff"/>
                <path id="Path_2498" data-name="Path 2498" d="M266.109,346.473l.046.152h.15l-.122.094.046.152-.122-.094-.122.094.047-.152-.122-.094h.15Z" transform="translate(-261.874 -344.668)" fill="#fff"/>
                <path id="Path_2499" data-name="Path 2499" d="M252.425,350.843l.046.152h.15l-.122.094.046.152-.122-.094-.122.094.046-.152-.122-.094h.15Z" transform="translate(-251.959 -347.834)" fill="#fff"/>
                <path id="Path_2500" data-name="Path 2500" d="M254.38,350.843l.046.152h.15l-.122.094.046.152-.122-.094-.122.094.046-.152-.122-.094h.15Z" transform="translate(-253.376 -347.834)" fill="#fff"/>
                <path id="Path_2501" data-name="Path 2501" d="M256.335,350.843l.046.152h.15l-.122.094.047.152-.122-.094-.122.094.046-.152-.122-.094h.15Z" transform="translate(-254.792 -347.834)" fill="#fff"/>
                <path id="Path_2502" data-name="Path 2502" d="M258.289,350.843l.046.152h.15l-.122.094.046.152-.122-.094-.122.094.046-.152-.122-.094h.15Z" transform="translate(-256.208 -347.834)" fill="#fff"/>
                <path id="Path_2503" data-name="Path 2503" d="M260.244,350.843l.046.152h.15l-.122.094.046.152-.122-.094-.122.094.046-.152-.122-.094h.15Z" transform="translate(-257.625 -347.834)" fill="#fff"/>
                <path id="Path_2504" data-name="Path 2504" d="M262.2,350.843l.046.152h.15l-.122.094.046.152-.122-.094-.122.094.046-.152-.122-.094h.15Z" transform="translate(-259.041 -347.834)" fill="#fff"/>
                <path id="Path_2505" data-name="Path 2505" d="M264.154,350.843l.046.152h.15l-.122.094.047.152-.122-.094-.122.094.046-.152-.122-.094h.15Z" transform="translate(-260.457 -347.834)" fill="#fff"/>
                <path id="Path_2506" data-name="Path 2506" d="M266.109,350.843l.046.152h.15l-.122.094.046.152-.122-.094-.122.094.047-.152-.122-.094h.15Z" transform="translate(-261.874 -347.834)" fill="#fff"/>
            </g>
        </g>
        <g id="Group_2024" data-name="Group 2024" transform="translate(-1197.246 -284.373)">
            <rect id="Rectangle_1107" data-name="Rectangle 1107" width="11.984" height="8.328" transform="translate(1262.642 361.646)" fill="#346fb7"/>
            <path id="Path_1286" data-name="Path 1286" d="M1274.626,361.646h-1.317l-3.4,2.231v-2.231h-2.032v2.211l-3.3-2.211h-1.927V362.8l2.9,1.941h-2.9v2.032h2.843l-2.843,1.863v1.336h1.667l3.564-2.336v2.336h2.032V367.66l3.46,2.314h1.262v-1.6l-2.391-1.6h2.391v-2.032h-2.335l2.335-1.531Z" transform="translate(0 0)" fill="#fffef3"/>
            <path id="Path_1287" data-name="Path 1287" d="M1274.626,361.646h-.216l-5.155,3.379v-3.379h-.731v3.4l-5.087-3.4h-.794v.395l5.011,3.352h-5.011v.731h4.937l-4.937,3.236v.614h.569l5.312-3.482v3.482h.731v-3.51l5.248,3.51h.124v-.843l-4.5-3.007h4.5v-.731H1270.2l4.426-2.9Z" transform="translate(0 0)" fill="#ff5252"/>
        </g>
    </g>
</svg>
