<svg xmlns="http://www.w3.org/2000/svg" width="27.906" height="19.184" viewBox="0 0 27.906 19.184">
  <g id="Group_3531" data-name="Group 3531" transform="translate(0 0)">
    <path id="Path_3780" data-name="Path 3780" d="M645.171,377.954l13.382,9.154a.437.437,0,0,1,0,.722l-13.382,9.154a.437.437,0,0,1-.684-.361V378.315A.437.437,0,0,1,645.171,377.954Z" transform="translate(-644.487 -377.877)" fill="#040d8d"/>
    <path id="Path_3781" data-name="Path 3781" d="M652.731,377.954l13.382,9.154a.437.437,0,0,1,0,.722l-13.382,9.154a.437.437,0,0,1-.684-.361V378.315A.437.437,0,0,1,652.731,377.954Z" transform="translate(-638.398 -377.877)" fill="#040d8d"/>
  </g>
</svg>
