<svg xmlns="http://www.w3.org/2000/svg" width="34.971" height="19.492" viewBox="0 0 34.971 19.492">
    <g id="Group_4284" data-name="Group 4284" transform="translate(-250.881 -339.502)">
        <rect id="Rectangle_1436" data-name="Rectangle 1436" width="34.971" height="19.491" transform="translate(250.881 339.502)" fill="#e6e6e6"/>
        <rect id="Rectangle_1437" data-name="Rectangle 1437" width="34.971" height="1.46" transform="translate(250.881 339.502)" fill="#ff2b55"/>
        <rect id="Rectangle_1438" data-name="Rectangle 1438" width="34.971" height="1.46" transform="translate(250.881 342.507)" fill="#ff2b55"/>
        <rect id="Rectangle_1439" data-name="Rectangle 1439" width="34.971" height="1.46" transform="translate(250.881 345.513)" fill="#ff2b55"/>
        <rect id="Rectangle_1440" data-name="Rectangle 1440" width="34.971" height="1.46" transform="translate(250.881 348.518)" fill="#ff2b55"/>
        <rect id="Rectangle_1441" data-name="Rectangle 1441" width="34.971" height="1.46" transform="translate(250.881 351.523)" fill="#ff2b55"/>
        <rect id="Rectangle_1442" data-name="Rectangle 1442" width="34.971" height="1.46" transform="translate(250.881 354.528)" fill="#ff2b55"/>
        <rect id="Rectangle_1443" data-name="Rectangle 1443" width="34.971" height="1.46" transform="translate(250.881 357.534)" fill="#ff2b55"/>
        <rect id="Rectangle_1444" data-name="Rectangle 1444" width="14.134" height="10.475" transform="translate(250.881 339.502)" fill="#0096ea"/>
        <g id="Group_2698" data-name="Group 2698" transform="translate(251.175 339.832)">
            <path id="Path_2456" data-name="Path 2456" d="M251.818,339.918l.134.437h.433l-.351.27.134.437-.351-.27-.351.27.134-.437-.351-.27h.433Z" transform="translate(-251.251 -339.918)" fill="#fff"/>
            <path id="Path_2457" data-name="Path 2457" d="M253.773,339.918l.134.437h.433l-.351.27.134.437-.351-.27-.351.27.134-.437-.351-.27h.433Z" transform="translate(-251.654 -339.918)" fill="#fff"/>
            <path id="Path_2458" data-name="Path 2458" d="M255.728,339.918l.134.437h.433l-.351.27.134.437-.351-.27-.351.27.134-.437-.351-.27h.433Z" transform="translate(-252.057 -339.918)" fill="#fff"/>
            <path id="Path_2459" data-name="Path 2459" d="M257.682,339.918l.134.437h.433l-.351.27.134.437-.351-.27-.351.27.134-.437-.351-.27h.433Z" transform="translate(-252.461 -339.918)" fill="#fff"/>
            <path id="Path_2460" data-name="Path 2460" d="M259.637,339.918l.134.437h.433l-.351.27.134.437-.351-.27-.351.27.134-.437-.351-.27h.433Z" transform="translate(-252.864 -339.918)" fill="#fff"/>
            <path id="Path_2461" data-name="Path 2461" d="M261.592,339.918l.134.437h.433l-.351.27.134.437-.351-.27-.351.27.134-.437-.351-.27h.433Z" transform="translate(-253.267 -339.918)" fill="#fff"/>
            <path id="Path_2462" data-name="Path 2462" d="M263.547,339.918l.134.437h.433l-.351.27.134.437-.351-.27-.351.27.134-.437-.351-.27h.433Z" transform="translate(-253.67 -339.918)" fill="#fff"/>
            <path id="Path_2463" data-name="Path 2463" d="M265.5,339.918l.134.437h.433l-.351.27.134.437-.351-.27-.351.27.134-.437-.351-.27h.433Z" transform="translate(-254.074 -339.918)" fill="#fff"/>
            <path id="Path_2464" data-name="Path 2464" d="M267.456,339.918l.134.437h.433l-.351.27.134.437-.351-.27-.351.27.134-.437-.351-.27h.433Z" transform="translate(-254.477 -339.918)" fill="#fff"/>
            <path id="Path_2465" data-name="Path 2465" d="M251.818,344.288l.134.437h.433l-.351.27.134.437-.351-.27-.351.27.134-.437-.351-.27h.433Z" transform="translate(-251.251 -340.819)" fill="#fff"/>
            <path id="Path_2466" data-name="Path 2466" d="M253.773,344.288l.134.437h.433l-.351.27.134.437-.351-.27-.351.27.134-.437-.351-.27h.433Z" transform="translate(-251.654 -340.819)" fill="#fff"/>
            <path id="Path_2467" data-name="Path 2467" d="M255.728,344.288l.134.437h.433l-.351.27.134.437-.351-.27-.351.27.134-.437-.351-.27h.433Z" transform="translate(-252.057 -340.819)" fill="#fff"/>
            <path id="Path_2468" data-name="Path 2468" d="M257.682,344.288l.134.437h.433l-.351.27.134.437-.351-.27-.351.27.134-.437-.351-.27h.433Z" transform="translate(-252.461 -340.819)" fill="#fff"/>
            <path id="Path_2469" data-name="Path 2469" d="M259.637,344.288l.134.437h.433l-.351.27.134.437-.351-.27-.351.27.134-.437-.351-.27h.433Z" transform="translate(-252.864 -340.819)" fill="#fff"/>
            <path id="Path_2470" data-name="Path 2470" d="M261.592,344.288l.134.437h.433l-.351.27.134.437-.351-.27-.351.27.134-.437-.351-.27h.433Z" transform="translate(-253.267 -340.819)" fill="#fff"/>
            <path id="Path_2471" data-name="Path 2471" d="M263.547,344.288l.134.437h.433l-.351.27.134.437-.351-.27-.351.27.134-.437-.351-.27h.433Z" transform="translate(-253.67 -340.819)" fill="#fff"/>
            <path id="Path_2472" data-name="Path 2472" d="M265.5,344.288l.134.437h.433l-.351.27.134.437-.351-.27-.351.27.134-.437-.351-.27h.433Z" transform="translate(-254.074 -340.819)" fill="#fff"/>
            <path id="Path_2473" data-name="Path 2473" d="M267.456,344.288l.134.437h.433l-.351.27.134.437-.351-.27-.351.27.134-.437-.351-.27h.433Z" transform="translate(-254.477 -340.819)" fill="#fff"/>
            <path id="Path_2474" data-name="Path 2474" d="M251.818,348.658l.134.437h.433l-.351.27.134.437-.351-.27-.351.27.134-.437-.351-.27h.433Z" transform="translate(-251.251 -341.721)" fill="#fff"/>
            <path id="Path_2475" data-name="Path 2475" d="M253.773,348.658l.134.437h.433l-.351.27.134.437-.351-.27-.351.27.134-.437-.351-.27h.433Z" transform="translate(-251.654 -341.721)" fill="#fff"/>
            <path id="Path_2476" data-name="Path 2476" d="M255.728,348.658l.134.437h.433l-.351.27.134.437-.351-.27-.351.27.134-.437-.351-.27h.433Z" transform="translate(-252.057 -341.721)" fill="#fff"/>
            <path id="Path_2477" data-name="Path 2477" d="M257.682,348.658l.134.437h.433l-.351.27.134.437-.351-.27-.351.27.134-.437-.351-.27h.433Z" transform="translate(-252.461 -341.721)" fill="#fff"/>
            <path id="Path_2478" data-name="Path 2478" d="M259.637,348.658l.134.437h.433l-.351.27.134.437-.351-.27-.351.27.134-.437-.351-.27h.433Z" transform="translate(-252.864 -341.721)" fill="#fff"/>
            <path id="Path_2479" data-name="Path 2479" d="M261.592,348.658l.134.437h.433l-.351.27.134.437-.351-.27-.351.27.134-.437-.351-.27h.433Z" transform="translate(-253.267 -341.721)" fill="#fff"/>
            <path id="Path_2480" data-name="Path 2480" d="M263.547,348.658l.134.437h.433l-.351.27.134.437-.351-.27-.351.27.134-.437-.351-.27h.433Z" transform="translate(-253.67 -341.721)" fill="#fff"/>
            <path id="Path_2481" data-name="Path 2481" d="M265.5,348.658l.134.437h.433l-.351.27.134.437-.351-.27-.351.27.134-.437-.351-.27h.433Z" transform="translate(-254.074 -341.721)" fill="#fff"/>
            <path id="Path_2482" data-name="Path 2482" d="M267.456,348.658l.134.437h.433l-.351.27.134.437-.351-.27-.351.27.134-.437-.351-.27h.433Z" transform="translate(-254.477 -341.721)" fill="#fff"/>
            <path id="Path_2483" data-name="Path 2483" d="M252.8,342.1l.134.437h.433l-.351.27.134.437-.351-.27-.351.27.134-.437-.351-.27h.433Z" transform="translate(-251.452 -340.369)" fill="#fff"/>
            <path id="Path_2484" data-name="Path 2484" d="M254.75,342.1l.134.437h.433l-.351.27.134.437-.351-.27-.351.27.134-.437-.351-.27h.433Z" transform="translate(-251.856 -340.369)" fill="#fff"/>
            <path id="Path_2485" data-name="Path 2485" d="M256.705,342.1l.134.437h.433l-.351.27.134.437-.351-.27-.351.27.134-.437-.351-.27h.433Z" transform="translate(-252.259 -340.369)" fill="#fff"/>
            <path id="Path_2486" data-name="Path 2486" d="M258.66,342.1l.134.437h.433l-.351.27.134.437-.351-.27-.351.27.134-.437-.351-.27h.433Z" transform="translate(-252.662 -340.369)" fill="#fff"/>
            <path id="Path_2487" data-name="Path 2487" d="M260.615,342.1l.134.437h.433l-.351.27.134.437-.351-.27-.351.27.134-.437-.351-.27h.433Z" transform="translate(-253.065 -340.369)" fill="#fff"/>
            <path id="Path_2488" data-name="Path 2488" d="M262.569,342.1l.134.437h.433l-.351.27.134.437-.351-.27-.351.27.134-.437-.351-.27h.433Z" transform="translate(-253.469 -340.369)" fill="#fff"/>
            <path id="Path_2489" data-name="Path 2489" d="M264.524,342.1l.134.437h.433l-.351.27.134.437-.351-.27-.351.27.134-.437-.351-.27h.433Z" transform="translate(-253.872 -340.369)" fill="#fff"/>
            <path id="Path_2490" data-name="Path 2490" d="M266.479,342.1l.134.437h.433l-.351.27.134.437-.351-.27-.351.27.134-.437-.351-.27h.433Z" transform="translate(-254.275 -340.369)" fill="#fff"/>
            <path id="Path_2491" data-name="Path 2491" d="M252.8,346.473l.134.437h.433l-.351.27.134.437-.351-.27-.351.27.134-.437-.351-.27h.433Z" transform="translate(-251.452 -341.27)" fill="#fff"/>
            <path id="Path_2492" data-name="Path 2492" d="M254.75,346.473l.134.437h.433l-.351.27.134.437-.351-.27-.351.27.134-.437-.351-.27h.433Z" transform="translate(-251.856 -341.27)" fill="#fff"/>
            <path id="Path_2493" data-name="Path 2493" d="M256.705,346.473l.134.437h.433l-.351.27.134.437-.351-.27-.351.27.134-.437-.351-.27h.433Z" transform="translate(-252.259 -341.27)" fill="#fff"/>
            <path id="Path_2494" data-name="Path 2494" d="M258.66,346.473l.134.437h.433l-.351.27.134.437-.351-.27-.351.27.134-.437-.351-.27h.433Z" transform="translate(-252.662 -341.27)" fill="#fff"/>
            <path id="Path_2495" data-name="Path 2495" d="M260.615,346.473l.134.437h.433l-.351.27.134.437-.351-.27-.351.27.134-.437-.351-.27h.433Z" transform="translate(-253.065 -341.27)" fill="#fff"/>
            <path id="Path_2496" data-name="Path 2496" d="M262.569,346.473l.134.437h.433l-.351.27.134.437-.351-.27-.351.27.134-.437-.351-.27h.433Z" transform="translate(-253.469 -341.27)" fill="#fff"/>
            <path id="Path_2497" data-name="Path 2497" d="M264.524,346.473l.134.437h.433l-.351.27.134.437-.351-.27-.351.27.134-.437-.351-.27h.433Z" transform="translate(-253.872 -341.27)" fill="#fff"/>
            <path id="Path_2498" data-name="Path 2498" d="M266.479,346.473l.134.437h.433l-.351.27.134.437-.351-.27-.351.27.134-.437-.351-.27h.433Z" transform="translate(-254.275 -341.27)" fill="#fff"/>
            <path id="Path_2499" data-name="Path 2499" d="M252.8,350.843l.134.437h.433l-.351.27.134.437-.351-.27-.351.27.134-.437-.351-.27h.433Z" transform="translate(-251.452 -342.172)" fill="#fff"/>
            <path id="Path_2500" data-name="Path 2500" d="M254.75,350.843l.134.437h.433l-.351.27.134.437-.351-.27-.351.27.134-.437-.351-.27h.433Z" transform="translate(-251.856 -342.172)" fill="#fff"/>
            <path id="Path_2501" data-name="Path 2501" d="M256.705,350.843l.134.437h.433l-.351.27.134.437-.351-.27-.351.27.134-.437-.351-.27h.433Z" transform="translate(-252.259 -342.172)" fill="#fff"/>
            <path id="Path_2502" data-name="Path 2502" d="M258.66,350.843l.134.437h.433l-.351.27.134.437-.351-.27-.351.27.134-.437-.351-.27h.433Z" transform="translate(-252.662 -342.172)" fill="#fff"/>
            <path id="Path_2503" data-name="Path 2503" d="M260.615,350.843l.134.437h.433l-.351.27.134.437-.351-.27-.351.27.134-.437-.351-.27h.433Z" transform="translate(-253.065 -342.172)" fill="#fff"/>
            <path id="Path_2504" data-name="Path 2504" d="M262.569,350.843l.134.437h.433l-.351.27.134.437-.351-.27-.351.27.134-.437-.351-.27h.433Z" transform="translate(-253.469 -342.172)" fill="#fff"/>
            <path id="Path_2505" data-name="Path 2505" d="M264.524,350.843l.134.437h.433l-.351.27.134.437-.351-.27-.351.27.134-.437-.351-.27h.433Z" transform="translate(-253.872 -342.172)" fill="#fff"/>
            <path id="Path_2506" data-name="Path 2506" d="M266.479,350.843l.134.437h.433l-.351.27.134.437-.351-.27-.351.27.134-.437-.351-.27h.433Z" transform="translate(-254.275 -342.172)" fill="#fff"/>
        </g>
    </g>
</svg>
