<svg xmlns="http://www.w3.org/2000/svg" width="33.625" height="29.041" viewBox="0 0 33.625 29.041">
    <g id="Icon_material-record-voice-over" data-name="Icon material-record-voice-over" transform="translate(-1.5 -3)">
        <path id="Path_4308" data-name="Path 4308" d="M19.728,13.614A6.114,6.114,0,1,1,13.614,7.5,6.114,6.114,0,0,1,19.728,13.614Z" transform="translate(0.114 0.085)" fill="#feb100"/>
        <path id="Path_4309" data-name="Path 4309" d="M13.728,22.87C9.647,22.87,1.5,24.918,1.5,28.984v3.057H25.956V28.984C25.956,24.918,17.809,22.87,13.728,22.87ZM25.589,8.136l-2.568,2.583a5.071,5.071,0,0,1,0,5.946l2.568,2.583A7.822,7.822,0,0,0,25.589,8.136ZM30.648,3,28.157,5.491a12.2,12.2,0,0,1,0,16.416L30.648,24.4A15.024,15.024,0,0,0,30.648,3Z" fill="#feb100"/>
    </g>
</svg>
