<svg xmlns="http://www.w3.org/2000/svg" width="27.906" height="19.184" viewBox="0 0 27.906 19.184">
  <g id="Group_3532" data-name="Group 3532" transform="translate(0 0)">
    <path id="Path_3782" data-name="Path 3782" d="M563.709,396.984l-13.382-9.154a.437.437,0,0,1,0-.722l13.382-9.154a.437.437,0,0,1,.684.361v18.307A.437.437,0,0,1,563.709,396.984Z" transform="translate(-536.487 -377.877)" fill="#040d8d"/>
    <path id="Path_3783" data-name="Path 3783" d="M556.149,396.984l-13.382-9.154a.437.437,0,0,1,0-.722l13.382-9.154a.437.437,0,0,1,.684.361v18.307A.437.437,0,0,1,556.149,396.984Z" transform="translate(-542.576 -377.877)" fill="#040d8d"/>
  </g>
</svg>
