<svg xmlns="http://www.w3.org/2000/svg" width="17.108" height="16.502" viewBox="0 0 17.108 16.502">
    <path id="Path_3919" data-name="Path 3919" d="M229.812,260.157l3.673.621a1.285,1.285,0,0,1,.661,2.208l-2.727,2.537a1.283,1.283,0,0,0-.4,1.128l.544,3.686a1.284,1.284,0,0,1-1.9,1.31l-3.256-1.809a1.282,1.282,0,0,0-1.2-.028l-3.337,1.656a1.284,1.284,0,0,1-1.832-1.4l.715-3.656a1.286,1.286,0,0,0-.343-1.146l-2.607-2.661a1.285,1.285,0,0,1,.763-2.175l3.7-.449a1.282,1.282,0,0,0,.983-.681l1.726-3.3a1.285,1.285,0,0,1,2.3.054l1.571,3.378A1.285,1.285,0,0,0,229.812,260.157Z" transform="translate(-217.449 -255.31)" fill="#fb0"/>
</svg>