<svg xmlns="http://www.w3.org/2000/svg" width="18.18" height="18.18" viewBox="0 0 18.18 18.18">
    <path id="Icon_material-g-translate" data-name="Icon material-g-translate" d="M19.362,5.727h-8.29L10.272,3H4.818A1.823,1.823,0,0,0,3,4.818V16.635a1.823,1.823,0,0,0,1.818,1.818h6.363l.909,2.727h7.272a1.823,1.823,0,0,0,1.818-1.818V7.545A1.823,1.823,0,0,0,19.362,5.727ZM7.7,14.444a3.718,3.718,0,0,1,0-7.435,3.59,3.59,0,0,1,2.491.973l.064.055L9.136,9.108l-.055-.045A1.974,1.974,0,0,0,7.7,8.527a2.2,2.2,0,0,0,0,4.4A1.862,1.862,0,0,0,9.626,11.6H7.618V10.19h3.59l.009.064a2.854,2.854,0,0,1,.045.554A3.446,3.446,0,0,1,7.7,14.444Zm5.481-1.554a9.074,9.074,0,0,0,1.082,1.545l-.491.482Zm.7-.691h-.9l-.282-.945h3.627a6.982,6.982,0,0,1-1.418,2.491A8.346,8.346,0,0,1,13.881,12.2Zm6.39,7.163a.912.912,0,0,1-.909.909H13l1.818-1.818-.736-2.518.836-.836,2.436,2.445.664-.664-2.463-2.436A7.936,7.936,0,0,0,17.3,11.254h1.154v-.945H15.144V9.363H14.2v.945H12.417L11.344,6.636h8.017a.912.912,0,0,1,.909.909Z" transform="translate(-3 -3)" fill="#707070"/>
</svg>
