<svg id="Group_125" data-name="Group 125" xmlns="http://www.w3.org/2000/svg" width="35" height="35" viewBox="0 0 35 35">
  <g id="Ellipse_52" data-name="Ellipse 52" fill="none" stroke="#ffbe0b" stroke-width="1">
    <circle cx="17.5" cy="17.5" r="17.5" stroke="none"/>
    <circle cx="17.5" cy="17.5" r="17" fill="none"/>
  </g>
  <g id="twitter" transform="translate(11 12)">
    <path id="XMLID_827_" d="M12.576,29.313a4.879,4.879,0,0,1-.622.227,2.752,2.752,0,0,0,.56-.985.208.208,0,0,0-.3-.242,4.9,4.9,0,0,1-1.448.572,2.764,2.764,0,0,0-4.7,1.975,2.818,2.818,0,0,0,.023.357,7.073,7.073,0,0,1-4.855-2.576.208.208,0,0,0-.34.027,2.767,2.767,0,0,0,.283,3.18,2.341,2.341,0,0,1-.37-.165.208.208,0,0,0-.308.177c0,.012,0,.024,0,.037a2.773,2.773,0,0,0,1.352,2.376c-.07-.007-.14-.017-.21-.031a.208.208,0,0,0-.237.267,2.762,2.762,0,0,0,2.024,1.852,4.888,4.888,0,0,1-2.613.746,5,5,0,0,1-.585-.034.208.208,0,0,0-.136.381,7.451,7.451,0,0,0,4.029,1.181,7.168,7.168,0,0,0,5.553-2.439A7.731,7.731,0,0,0,11.6,31.156c0-.076,0-.152,0-.229a5.371,5.371,0,0,0,1.236-1.309.208.208,0,0,0-.257-.305Z" transform="translate(0.002 -28.097)" fill="#ffbe0b"/>
  </g>
</svg>
