<svg xmlns="http://www.w3.org/2000/svg" width="29.709" height="20.645" viewBox="0 0 29.709 20.645">
  <g id="Group_4285" data-name="Group 4285" transform="translate(-1262.642 -361.646)">
    <rect id="Rectangle_1107" data-name="Rectangle 1107" width="29.709" height="20.645" transform="translate(1262.642 361.646)" fill="#346fb7"/>
    <path id="Path_1286" data-name="Path 1286" d="M1292.351,361.646h-3.265l-8.439,5.532v-5.532h-5.037v5.48l-8.192-5.48h-4.776v2.865l7.194,4.812h-7.194v5.037h7.048l-7.048,4.619v3.313h4.134l8.834-5.79v5.79h5.037v-5.737l8.576,5.737h3.128v-3.967l-5.927-3.965h5.927v-5.037h-5.789l5.789-3.795Z" transform="translate(0 0)" fill="#fffef3"/>
    <path id="Path_1287" data-name="Path 1287" d="M1292.351,361.646h-.536l-12.78,8.378v-8.378h-1.813v8.436l-12.61-8.436h-1.969v.979l12.423,8.31h-12.423v1.813h12.238l-12.238,8.022v1.522h1.411l13.168-8.632v8.632h1.813v-8.7l13.009,8.7h.307V380.2l-11.143-7.454h11.143v-1.813h-10.972l10.972-7.193Z" transform="translate(0 0)" fill="#ff5252"/>
  </g>
</svg>
